<?xml version="1.0" encoding="UTF-8" standalone="no"?>
<!-- Created with Inkscape (http://www.inkscape.org/) -->

<svg
   width="32"
   height="32"
   viewBox="0 0 8.4666667 8.4666667"
   version="1.1"
   id="svg1"
   xml:space="preserve"
   sodipodi:docname="CGBfavicon.svg"
   inkscape:version="1.4.2 (f4327f4, 2025-05-13)"
   inkscape:export-filename="CGBfavicon.png"
   inkscape:export-xdpi="96"
   inkscape:export-ydpi="96"
   xmlns:inkscape="http://www.inkscape.org/namespaces/inkscape"
   xmlns:sodipodi="http://sodipodi.sourceforge.net/DTD/sodipodi-0.dtd"
   xmlns="http://www.w3.org/2000/svg"
   xmlns:svg="http://www.w3.org/2000/svg"><sodipodi:namedview
     id="namedview1"
     pagecolor="#002676"
     bordercolor="#000000"
     borderopacity="0.25"
     inkscape:showpageshadow="2"
     inkscape:pageopacity="0.0"
     inkscape:pagecheckerboard="0"
     inkscape:deskcolor="#d1d1d1"
     inkscape:document-units="mm"
     showgrid="false"
     inkscape:zoom="6.758338"
     inkscape:cx="11.393334"
     inkscape:cy="44.61156"
     inkscape:window-width="1920"
     inkscape:window-height="1009"
     inkscape:window-x="-8"
     inkscape:window-y="-8"
     inkscape:window-maximized="1"
     inkscape:current-layer="layer1"
     inkscape:export-bgcolor="#002675ff"><inkscape:page
       x="0"
       y="0"
       width="8.4666672"
       height="8.4666672"
       id="page2"
       margin="0"
       bleed="0" /></sodipodi:namedview><defs
     id="defs1"><inkscape:path-effect
       effect="fillet_chamfer"
       id="path-effect10"
       is_visible="true"
       lpeversion="1"
       nodesatellites_param="F,0,0,1,0,0,0,1 @ F,0,0,1,0,0,0,1 @ F,0,0,1,0,0,0,1 @ F,0,0,1,0,0,0,1 @ F,0,0,1,0,0,0,1 @ F,0,0,1,0,0,0,1 @ F,0,0,1,0,0,0,1 @ F,0,0,1,0,0,0,1 | F,0,0,1,0,0,0,1 @ F,0,0,1,0,0,0,1 @ F,0,0,1,0,0,0,1 @ F,0,0,1,0,0,0,1 @ F,0,0,1,0,0,0,1 @ F,0,0,1,0,0,0,1 @ F,0,0,1,0,0,0,1 @ F,0,0,1,0,0,0,1 @ F,0,0,1,0,0,0,1 | F,0,0,1,0,0,0,1 @ F,0,0,1,0,0,0,1 @ F,0,0,1,0,0,0,1 @ F,0,0,1,0,0,0,1 @ F,0,0,1,0,0,0,1 @ F,0,0,1,0,0,0,1 @ F,0,0,1,0,0,0,1 @ F,0,0,1,0,0,0,1 | F,0,0,1,0,0,0,1 @ F,0,0,1,0,0,0,1 @ F,0,0,1,0,0,0,1 @ F,0,0,1,0,0,0,1 @ F,0,0,1,0,0,0,1 @ F,0,0,1,0,0,0,1 @ F,0,0,1,0,0,0,1 @ F,0,0,1,0,0,0,1 @ F,0,0,1,0,0,0,1 @ F,0,0,1,0,0,0,1 @ F,0,0,1,0,0,0,1 | F,0,0,1,0,0,0,1 @ F,0,0,1,0,0,0,1 @ F,0,0,1,0,0,0,1 @ F,0,0,1,0,0,0,1 @ F,0,0,1,0,0,0,1 @ F,0,0,1,0,0,0,1 @ F,0,0,1,0,0,0,1 @ F,0,0,1,0,0,0,1 @ F,0,0,1,0,0,0,1 @ F,0,0,1,0,0,0,1 | F,0,0,1,0,0,0,1 @ F,0,0,1,0,0,0,1 @ F,0,0,1,0,0,0,1 @ F,0,0,1,0,0,0,1 @ F,0,0,1,0,0,0,1 @ F,0,0,1,0,0,0,1 @ F,0,0,1,0,0,0,1 @ F,0,0,1,0,0,0,1 @ F,0,0,1,0,0,0,1 @ F,0,0,1,0,0,0,1 | F,0,0,1,0,0,0,1 @ F,0,0,1,0,0,0,1 @ F,0,0,1,0,0,0,1 @ F,0,0,1,0,0,0,1 @ F,0,0,1,0,0,0,1 @ F,0,0,1,0,0,0,1 @ F,0,0,1,0,0,0,1 @ F,0,0,1,0,0,0,1 @ F,0,0,1,0,0,0,1 | F,0,0,1,0,0,0,1 @ F,0,0,1,0,0,0,1 @ F,0,0,1,0,0,0,1 @ F,0,0,1,0,0,0,1 @ F,0,0,1,0,0,0,1 @ F,0,0,1,0,0,0,1 @ F,0,0,1,0,0,0,1 @ F,0,0,1,0,0,0,1 @ F,0,0,1,0,0,0,1 @ F,0,0,1,0,0,0,1 | F,0,0,1,0,0,0,1 @ F,0,0,1,0,0,0,1 @ F,0,0,1,0,0,0,1 @ F,0,0,1,0,0,0,1 @ F,0,0,1,0,0,0,1 @ F,0,0,1,0,0,0,1 @ F,0,0,1,0,0,0,1 @ F,0,0,1,0,0,0,1 @ F,0,0,1,0,0,0,1 | F,0,0,1,0,0,0,1 @ F,0,0,1,0,0,0,1 @ F,0,0,1,0,0,0,1 @ F,0,0,1,0,0,0,1 @ F,0,0,1,0,0,0,1 @ F,0,0,1,0,0,0,1 @ F,0,0,1,0,0,0,1 @ F,0,0,1,0,0,0,1 | F,0,0,1,0,0,0,1 @ F,0,0,1,0,0,0,1 @ F,0,0,1,0,0,0,1 @ F,0,0,1,0,0,0,1 @ F,0,0,1,0,0,0,1 @ F,0,0,1,0,0,0,1 @ F,0,0,1,0,0,0,1 @ F,0,0,1,0,0,0,1 @ F,0,0,1,0,0,0,1 @ F,0,0,1,0,0,0,1 @ F,0,0,1,0,0,0,1 @ F,0,0,1,0,0,0,1 @ F,0,0,1,0,0,0,1 @ F,0,0,1,0,0,0,1 @ F,0,0,1,0,0,0,1 @ F,0,0,1,0,0,0,1"
       radius="0"
       unit="px"
       method="auto"
       mode="F"
       chamfer_steps="1"
       flexible="false"
       use_knot_distance="true"
       apply_no_radius="true"
       apply_with_radius="true"
       only_selected="false"
       hide_knots="false" /><inkscape:path-effect
       effect="fillet_chamfer"
       id="path-effect10-8"
       is_visible="true"
       lpeversion="1"
       nodesatellites_param="F,0,0,1,0,0,0,1 @ F,0,0,1,0,0,0,1 @ F,0,0,1,0,0,0,1 @ F,0,0,1,0,0,0,1 @ F,0,0,1,0,0,0,1 @ F,0,0,1,0,1.1448731,0,1 @ F,0,0,1,0,0,0,1 | F,0,0,1,0,0,0,1 @ F,0,0,1,0,0,0,1 @ F,0,0,1,0,0,0,1 @ F,0,0,1,0,0,0,1 @ F,0,0,1,0,0,0,1 @ F,0,0,1,0,0,0,1 @ F,0,0,1,0,0,0,1 @ F,0,0,1,0,0,0,1 | F,0,0,1,0,0,0,1 @ F,0,0,1,0,0,0,1 @ F,0,0,1,0,0,0,1 @ F,0,0,1,0,0,0,1 @ F,0,0,1,0,0,0,1 @ F,0,0,1,0,0,0,1 @ F,0,0,1,0,0,0,1 @ F,0,0,1,0,0,0,1 @ F,0,0,1,0,0,0,1 @ F,0,0,1,0,0,0,1 | F,0,0,1,0,0,0,1 @ F,0,0,1,0,0,0,1 @ F,0,0,1,0,0,0,1 @ F,0,0,1,0,0,0,1 @ F,0,0,1,0,0,0,1 @ F,0,0,1,0,0,0,1 @ F,0,0,1,0,0,0,1 @ F,0,0,1,0,0,0,1 @ F,0,0,1,0,0,0,1 @ F,0,0,1,0,0,0,1 @ F,0,0,1,0,0,0,1 | F,0,0,1,0,0,0,1 @ F,0,0,1,0,0,0,1 @ F,0,0,1,0,0,0,1 @ F,0,0,1,0,0,0,1 @ F,0,0,1,0,0,0,1 @ F,0,0,1,0,0,0,1 @ F,0,0,1,0,0,0,1 @ F,0,0,1,0,0,0,1 @ F,0,0,1,0,0,0,1 @ F,0,0,1,0,0,0,1 | F,0,0,1,0,0,0,1 @ F,0,0,1,0,0,0,1 @ F,0,0,1,0,0,0,1 @ F,0,0,1,0,0,0,1 @ F,0,0,1,0,0,0,1 @ F,0,0,1,0,0,0,1 @ F,0,0,1,0,0,0,1 @ F,0,0,1,0,0,0,1 @ F,0,0,1,0,0,0,1 @ F,0,0,1,0,0,0,1 | F,0,0,1,0,0,0,1 @ F,0,0,1,0,0,0,1 @ F,0,0,1,0,0,0,1 @ F,0,0,1,0,0,0,1 @ F,0,0,1,0,0,0,1 @ F,0,0,1,0,0,0,1 @ F,0,0,1,0,0,0,1 @ F,0,0,1,0,0,0,1 | F,0,0,1,0,0,0,1 @ F,0,0,1,0,0,0,1 @ F,0,0,1,0,0,0,1 @ F,0,0,1,0,0,0,1 @ F,0,0,1,0,0,0,1 @ F,0,0,1,0,0,0,1 @ F,0,0,1,0,0,0,1 @ F,0,0,1,0,0,0,1 @ F,0,0,1,0,0,0,1 @ F,0,0,1,0,0,0,1 | F,0,0,1,0,0,0,1 @ F,0,0,1,0,0,0,1 @ F,0,0,1,0,0,0,1 @ F,0,0,1,0,0,0,1 @ F,0,0,1,0,0,0,1 @ F,0,0,1,0,0,0,1 @ F,0,0,1,0,0,0,1 @ F,0,0,1,0,0,0,1 | F,0,0,1,0,0,0,1 @ F,0,0,1,0,0,0,1 @ F,0,0,1,0,0,0,1 @ F,0,0,1,0,0,0,1 @ F,0,0,1,0,0,0,1 @ F,0,0,1,0,0,0,1 @ F,0,0,1,0,0,0,1 | F,0,0,1,0,0,0,1 @ F,0,0,1,0,0,0,1 @ F,0,0,1,0,0,0,1 @ F,0,0,1,0,0,0,1 @ F,0,0,1,0,0,0,1 @ F,0,0,1,0,0,0,1 @ F,0,0,1,0,0,0,1 @ F,0,0,1,0,0,0,1 @ F,0,0,1,0,0,0,1 @ F,0,0,1,0,0,0,1 @ F,0,0,1,0,0,0,1 @ F,0,0,1,0,0,0,1 @ F,0,0,1,0,0,0,1 @ F,0,0,1,0,0,0,1 @ F,0,0,1,0,0,0,1 @ F,0,0,1,0,0,0,1"
       radius="0"
       unit="px"
       method="auto"
       mode="F"
       chamfer_steps="1"
       flexible="false"
       use_knot_distance="true"
       apply_no_radius="true"
       apply_with_radius="true"
       only_selected="false"
       hide_knots="false" /></defs><g
     inkscape:label="Layer 1"
     inkscape:groupmode="layer"
     id="layer1"
     transform="translate(-63.399576,-36.950305)"><path
       id="path12"
       style="fill:#ffa600;fill-opacity:1;stroke-width:18.3705"
       d="m 110.09087,36.950307 c -0.52004,-7.01e-4 -0.79855,0.172584 -0.95498,0.594279 -0.12146,0.327421 -0.30313,2.808163 -0.4036,5.512842 -0.14443,3.888029 0.28081,4.742444 0.55272,4.967371 0.18915,0.156468 1.12402,-0.307649 2.65199,-0.169834 1.95605,0.176427 3.07916,0.467292 3.74062,0.682939 0.54279,0.17696 1.10338,-0.382266 1.02118,-1.004709 -0.20506,-1.55284 -0.93356,-4.15058 -1.62891,-5.523765 -1.72544,-3.407404 -3.3488,-5.056927 -4.97902,-5.059123 z m -23.221843,4.713924 c -0.495711,-0.0095 -1.031318,0.189147 -1.452107,0.584461 -0.82284,0.773014 -2.797472,4.629821 -3.553272,6.940661 -0.72485,2.216236 -1.325114,5.580788 -1.134814,6.359302 0.38261,1.565224 1.03276,1.594127 3.26595,0.144177 1.75995,-1.142684 3.510257,-1.810225 4.746997,-1.810225 1.22762,0 1.448466,-0.553362 1.088306,-2.727482 -1.029,-6.211623 -1.562812,-8.69881 -1.949752,-9.085751 -0.264429,-0.264429 -0.625755,-0.397728 -1.011308,-0.405143 z m 43.108993,6.331397 c -0.34702,0.02611 -0.39727,0.492112 -0.5364,3.108854 -0.35191,6.619198 -0.35365,9.05517 -0.006,9.47384 0.22315,0.268883 1.1112,0.268517 2.59145,0.391817 1.21981,0.10161 2.57318,0.473756 3.05575,0.587966 1.69196,0.40045 1.80351,0.35306 1.80351,-0.76688 0,-1.55594 -1.21665,-5.433857 -2.4474,-7.79952 -1.16754,-2.244153 -3.42375,-4.860482 -4.29948,-4.986259 -0.031,-0.0045 -0.0602,-0.008 -0.0879,-0.0098 -0.0259,-0.0017 -0.0502,-0.0017 -0.0734,0 z m -16.81447,5.66322 c -0.24049,-0.0086 -0.48489,-0.0049 -0.73278,0.01188 -0.88337,0.05972 -2.08235,0.336683 -2.66443,0.615467 -2.43376,1.165629 -4.72509,4.494383 -5.82394,8.459945 -0.67212,2.42557 -0.83534,8.55042 -0.28577,10.71873 1.13922,4.49482 3.85338,7.44843 7.30033,7.9437 1.44591,0.20775 2.17779,0.09081 3.61219,-0.57774 1.26804,-0.59099 3.12845,-2.48282 4.12843,-4.1982 0.3805,-0.65271 1.01537,-2.13899 1.41128,-3.30315 0.95144,-2.79769 1.21498,-8.49482 0.53382,-11.54865 -1.1224,-5.03207 -3.87183,-7.992544 -7.47913,-8.121987 z m -24.247619,3.961515 c -0.193236,-0.0089 -0.385587,-0.0082 -0.577226,0.0021 -3.321736,0.178673 -6.353415,3.200265 -7.433138,7.796425 -0.53677,2.28493 -0.380403,8.1513 0.281637,10.55646 0.733,2.66303 2.394064,5.78921 3.993554,7.51685 3.16983,3.42379 6.304526,4.47662 9.239746,3.10369 2.681336,-1.25417 4.959146,-4.74067 5.397606,-8.26306 0.7021,-5.64028 -1.11696,-11.91767 -4.961973,-17.12247 -1.11946,-1.515348 -2.632943,-2.685564 -4.191993,-3.241663 -0.582783,-0.207874 -1.168507,-0.32168 -1.748213,-0.348299 z m -19.68407,1.042314 c -0.230442,-0.0093 -0.574613,0.211119 -1.163237,0.706417 -1.76303,1.483481 -4.127746,7.785561 -4.604886,12.273151 -0.3102,2.91755 0.475674,3.51004 2.985864,2.25206 0.68639,-0.34398 2.020743,-0.71014 2.965193,-0.8139 0.94444,-0.10376 1.867181,-0.31293 2.050521,-0.46509 0.44064,-0.3657 0.421617,-1.5379 -0.05219,-3.21376 -0.21203,-0.75 -0.694889,-3.38072 -1.073319,-5.84564 -0.37843,-2.46493 -0.747642,-4.578271 -0.820622,-4.696351 -0.07676,-0.124207 -0.166614,-0.192037 -0.287321,-0.196887 z m 63.024059,6.861598 c -3.96598,0 -7.69267,3.88448 -9.39943,9.79682 -0.8076,2.79757 -1.00774,7.96675 -0.39842,10.29549 0.58048,2.2185 1.252,3.50238 2.59312,4.95732 1.16064,1.25915 2.05643,1.82122 3.76515,2.36162 1.34284,0.42468 1.19559,0.42002 2.76624,0.08319 2.92022,-0.62628 6.17555,-4.11707 7.56491,-8.11216 1.67258,-4.8095 1.4119,-11.33214 -0.61082,-15.28796 -1.24503,-2.43489 -3.79068,-4.09432 -6.28075,-4.09432 z m 14.90865,0.29094 c -0.0503,0.0025 -0.0874,0.01353 -0.10749,0.03359 -0.0802,0.0802 -0.25942,1.73657 -0.3979,3.68091 -0.13848,1.94435 -0.37166,4.64399 -0.51832,5.99912 -0.16509,1.52538 2.05829,1.848017 2.21031,2.119677 0.28746,0.51367 2.44471,3.184793 3.21932,3.128063 0.4849,-0.0355 0.52375,-0.20477 0.46509,-2.02313 -0.0689,-2.13649 -0.64458,-5.41077 -1.29759,-7.37837 -0.80894,-2.43744 -2.22623,-5.07611 -2.88872,-5.37796 -0.26661,-0.12148 -0.53395,-0.18933 -0.68471,-0.1819 z m -74.754609,10.31875 c -1.970288,-0.04956 -4.384059,0.87944 -5.68234,2.26394 -3.47621,3.70705 -3.803034,12.16774 -0.706934,18.29191 1.11686,2.20918 3.573269,4.859115 5.304069,5.721605 1.76234,0.87821 4.024068,0.93323 5.666838,0.13798 2.31307,-1.11974 4.207134,-3.653765 5.030184,-6.730335 0.95976,-3.58757 -0.0029,-8.93974 -2.354895,-13.09687 -2.02131,-3.5721 -4.580681,-6.15598 -6.444051,-6.50555 -0.25883,-0.04856 -0.531401,-0.0756 -0.812871,-0.08268 z m 74.506559,7.24968 c -1.26355,0 -1.70961,0.13483 -2.66185,0.80409 -2.52294,1.77319 -4.88986,5.62469 -6.16913,10.03918 -1.52087,5.2482 -0.38664,10.382795 2.75177,12.459695 1.99619,1.32101 3.83082,1.39627 6.09162,0.25063 2.54167,-1.28796 4.81195,-4.85124 5.70818,-8.959135 0.59581,-2.73093 0.42929,-7.54946 -0.33745,-9.76736 -1.11981,-3.23921 -2.89088,-4.8271 -5.38314,-4.8271 z m -40.4368,3.59978 c -3.19548,-0.13823 -6.41195,1.03158 -9.70535,3.50728 -0.88638,0.6663 -4.338611,3.84586 -7.671371,7.06572 -3.33276,3.219855 -7.431694,6.963005 -9.109004,8.318355 -5.364,4.33437 -8.661326,8.24615 -9.923426,11.77241 -0.65734,1.83656 -1.182979,4.88879 -1.177189,6.83627 0.0111,3.73657 1.205359,9.25778 2.956409,13.66893 4.94763,12.46377 16.295072,21.79109 29.768721,24.46983 3.6502,0.72571 4.03368,0.75806 7.88324,0.66301 2.60715,-0.0644 4.06141,-0.2457 6.00791,-0.75035 2.95023,-0.76488 6.27254,-2.24924 8.70799,-3.88968 3.67835,-2.47762 8.0089,-7.38359 10.61486,-12.02614 4.59938,-8.19386 7.34006,-18.97737 6.57272,-25.85889 -0.6918,-6.20412 -3.18282,-9.93219 -10.27172,-15.37425 -3.71547,-2.85232 -5.48342,-4.47779 -10.38696,-9.547215 -1.52797,-1.57967 -3.63773,-3.61088 -4.68861,-4.51394 -3.20825,-2.75696 -6.38274,-4.2031 -9.57822,-4.34134 z"
       inkscape:path-effect="#path-effect10-8"
       inkscape:original-d="m 110.09087,36.950307 c -0.52004,-7.01e-4 -0.79855,0.172584 -0.95498,0.594279 -0.12146,0.327421 -0.30313,2.808163 -0.4036,5.512842 -0.14443,3.888029 0.28081,4.742444 0.55272,4.967371 0.18915,0.156468 1.12402,-0.307649 2.65199,-0.169834 4.27982,0.386021 4.57214,1.319896 4.76587,0.81504 0.29393,-0.765956 -0.69941,-4.816939 -1.63298,-6.660575 -1.72544,-3.407404 -3.3488,-5.056927 -4.97902,-5.059123 z m -23.221843,4.713924 c -0.495711,-0.0095 -1.031318,0.189147 -1.452107,0.584461 -0.82284,0.773014 -2.797472,4.629821 -3.553272,6.940661 -0.72485,2.216236 -1.325114,5.580788 -1.134814,6.359302 0.38261,1.565224 1.03276,1.594127 3.26595,0.144177 1.75995,-1.142684 3.510257,-1.810225 4.746997,-1.810225 1.22762,0 1.448466,-0.553362 1.088306,-2.727482 -1.029,-6.211623 -1.562812,-8.69881 -1.949752,-9.085751 -0.264429,-0.264429 -0.625755,-0.397728 -1.011308,-0.405143 z m 43.108993,6.331397 c -0.34702,0.02611 -0.39727,0.492112 -0.5364,3.108854 -0.35191,6.619198 -0.35365,9.05517 -0.006,9.47384 0.22315,0.268883 1.1112,0.268517 2.59145,0.391817 1.21981,0.10161 2.57318,0.473756 3.05575,0.587966 1.69196,0.40045 1.80351,0.35306 1.80351,-0.76688 0,-1.55594 -1.21665,-5.433857 -2.4474,-7.79952 -1.16754,-2.244153 -3.42375,-4.860482 -4.29948,-4.986259 -0.031,-0.0045 -0.0602,-0.008 -0.0879,-0.0098 -0.0259,-0.0017 -0.0502,-0.0017 -0.0734,0 z m -16.81447,5.66322 c -0.24049,-0.0086 -0.48489,-0.0049 -0.73278,0.01188 -0.88337,0.05972 -2.08235,0.336683 -2.66443,0.615467 -2.43376,1.165629 -4.72509,4.494383 -5.82394,8.459945 -0.67212,2.42557 -0.83534,8.55042 -0.28577,10.71873 1.13922,4.49482 3.85338,7.44843 7.30033,7.9437 1.44591,0.20775 2.17779,0.09081 3.61219,-0.57774 1.26804,-0.59099 3.12845,-2.48282 4.12843,-4.1982 0.3805,-0.65271 1.01537,-2.13899 1.41128,-3.30315 0.95144,-2.79769 1.21498,-8.49482 0.53382,-11.54865 -1.1224,-5.03207 -3.87183,-7.992544 -7.47913,-8.121987 z m -24.247619,3.961515 c -0.193236,-0.0089 -0.385587,-0.0082 -0.577226,0.0021 -3.321736,0.178673 -6.353415,3.200265 -7.433138,7.796425 -0.53677,2.28493 -0.380403,8.1513 0.281637,10.55646 0.733,2.66303 2.394064,5.78921 3.993554,7.51685 3.16983,3.42379 6.304526,4.47662 9.239746,3.10369 2.681336,-1.25417 4.959146,-4.74067 5.397606,-8.26306 0.7021,-5.64028 -1.11696,-11.91767 -4.961973,-17.12247 -1.11946,-1.515348 -2.632943,-2.685564 -4.191993,-3.241663 -0.582783,-0.207874 -1.168507,-0.32168 -1.748213,-0.348299 z m -19.68407,1.042314 c -0.230442,-0.0093 -0.574613,0.211119 -1.163237,0.706417 -1.76303,1.483481 -4.127746,7.785561 -4.604886,12.273151 -0.3102,2.91755 0.475674,3.51004 2.985864,2.25206 0.68639,-0.34398 2.020743,-0.71014 2.965193,-0.8139 0.94444,-0.10376 1.867181,-0.31293 2.050521,-0.46509 0.44064,-0.3657 0.421617,-1.5379 -0.05219,-3.21376 -0.21203,-0.75 -0.694889,-3.38072 -1.073319,-5.84564 -0.37843,-2.46493 -0.747642,-4.578271 -0.820622,-4.696351 -0.07676,-0.124207 -0.166614,-0.192037 -0.287321,-0.196887 z m 63.024059,6.861598 c -3.96598,0 -7.69267,3.88448 -9.39943,9.79682 -0.8076,2.79757 -1.00774,7.96675 -0.39842,10.29549 0.58048,2.2185 1.252,3.50238 2.59312,4.95732 1.16064,1.25915 2.05643,1.82122 3.76515,2.36162 1.34284,0.42468 1.19559,0.42002 2.76624,0.08319 2.92022,-0.62628 6.17555,-4.11707 7.56491,-8.11216 1.67258,-4.8095 1.4119,-11.33214 -0.61082,-15.28796 -1.24503,-2.43489 -3.79068,-4.09432 -6.28075,-4.09432 z m 14.90865,0.29094 c -0.0503,0.0025 -0.0874,0.01353 -0.10749,0.03359 -0.0802,0.0802 -0.25942,1.73657 -0.3979,3.68091 -0.13848,1.94435 -0.37166,4.64399 -0.51832,5.99912 -0.16509,1.52538 2.05829,1.848017 2.21031,2.119677 0.28746,0.51367 2.44471,3.184793 3.21932,3.128063 0.4849,-0.0355 0.52375,-0.20477 0.46509,-2.02313 -0.0689,-2.13649 -0.64458,-5.41077 -1.29759,-7.37837 -0.80894,-2.43744 -2.22623,-5.07611 -2.88872,-5.37796 -0.26661,-0.12148 -0.53395,-0.18933 -0.68471,-0.1819 z m -74.754609,10.31875 c -1.970288,-0.04956 -4.384059,0.87944 -5.68234,2.26394 -3.47621,3.70705 -3.803034,12.16774 -0.706934,18.29191 1.11686,2.20918 3.573269,4.859115 5.304069,5.721605 1.76234,0.87821 4.024068,0.93323 5.666838,0.13798 2.31307,-1.11974 4.207134,-3.653765 5.030184,-6.730335 0.95976,-3.58757 -0.0029,-8.93974 -2.354895,-13.09687 -2.02131,-3.5721 -4.580681,-6.15598 -6.444051,-6.50555 -0.25883,-0.04856 -0.531401,-0.0756 -0.812871,-0.08268 z m 74.506559,7.24968 c -1.26355,0 -1.70961,0.13483 -2.66185,0.80409 -2.52294,1.77319 -4.88986,5.62469 -6.16913,10.03918 -1.52087,5.2482 -0.38664,10.382795 2.75177,12.459695 1.99619,1.32101 3.83082,1.39627 6.09162,0.25063 2.54167,-1.28796 4.81195,-4.85124 5.70818,-8.959135 0.59581,-2.73093 0.42929,-7.54946 -0.33745,-9.76736 -1.11981,-3.23921 -2.89088,-4.8271 -5.38314,-4.8271 z m -40.4368,3.59978 c -3.19548,-0.13823 -6.41195,1.03158 -9.70535,3.50728 -0.88638,0.6663 -4.338611,3.84586 -7.671371,7.06572 -3.33276,3.219855 -7.431694,6.963005 -9.109004,8.318355 -5.364,4.33437 -8.661326,8.24615 -9.923426,11.77241 -0.65734,1.83656 -1.182979,4.88879 -1.177189,6.83627 0.0111,3.73657 1.205359,9.25778 2.956409,13.66893 4.94763,12.46377 16.295072,21.79109 29.768721,24.46983 3.6502,0.72571 4.03368,0.75806 7.88324,0.66301 2.60715,-0.0644 4.06141,-0.2457 6.00791,-0.75035 2.95023,-0.76488 6.27254,-2.24924 8.70799,-3.88968 3.67835,-2.47762 8.0089,-7.38359 10.61486,-12.02614 4.59938,-8.19386 7.34006,-18.97737 6.57272,-25.85889 -0.6918,-6.20412 -3.18282,-9.93219 -10.27172,-15.37425 -3.71547,-2.85232 -5.48342,-4.47779 -10.38696,-9.547215 -1.52797,-1.57967 -3.63773,-3.61088 -4.68861,-4.51394 -3.20825,-2.75696 -6.38274,-4.2031 -9.57822,-4.34134 z"
       sodipodi:nodetypes="sssssscsccccssssccccssssccccscsscscsssssccscsssssccscsssscscssssssscsssscsssscssssscsssscsssssssssssssssssssssssssss"
       transform="matrix(0.05443519,0,0,0.05443519,61.743124,35.732658)" /></g></svg>
